<?xml version="1.0" standalone="no"?>
<!DOCTYPE svg PUBLIC "-//W3C//DTD SVG 20010904//EN"
 "http://www.w3.org/TR/2001/REC-SVG-20010904/DTD/svg10.dtd">
<svg version="1.0" xmlns="http://www.w3.org/2000/svg"
 width="1280.000000pt" height="724.000000pt" viewBox="0 0 1280.000000 724.000000"
 preserveAspectRatio="xMidYMid meet">
<metadata>
Created by potrace 1.15, written by Peter Selinger 2001-2017
</metadata>
<g transform="translate(0.000000,724.000000) scale(0.100000,-0.100000)"
fill="#607d8b" stroke="none">
<path d="M10166 7209 c-16 -18 -26 -43 -26 -61 0 -54 -22 -108 -49 -123 -34
-17 -112 -31 -241 -45 -58 -5 -256 -26 -440 -45 -184 -19 -357 -34 -385 -34
-41 1 -498 -80 -543 -96 -7 -3 -19 11 -28 34 l-15 38 -105 -40 c-57 -22 -104
-45 -104 -52 0 -6 53 -150 119 -320 65 -171 121 -319 125 -331 7 -23 284 32
-2304 -459 -767 -146 -1402 -265 -1411 -265 -13 0 -27 30 -54 118 -21 64 -44
126 -51 137 -7 11 -38 106 -69 210 -118 397 -137 460 -139 463 -3 2 -209 -57
-213 -62 -1 -1 11 -44 27 -96 15 -52 60 -205 99 -340 40 -135 103 -341 140
-458 38 -116 65 -210 61 -207 -13 8 -174 -129 -248 -211 -62 -67 -162 -206
-162 -225 0 -24 21 -2 70 73 84 129 341 373 355 336 3 -7 16 -45 29 -83 l23
-70 -224 -235 c-124 -129 -229 -236 -233 -238 -5 -2 -53 30 -107 71 -354 268
-759 433 -1208 492 -142 19 -455 22 -595 5 -798 -93 -1485 -533 -1898 -1217
-461 -762 -481 -1735 -52 -2514 536 -974 1623 -1483 2714 -1273 497 96 931
328 1297 693 268 268 433 514 570 855 34 84 49 110 68 118 17 6 27 5 33 -4 12
-19 11 -21 -27 -46 -58 -37 -44 -54 22 -27 52 22 62 1 21 -42 -39 -40 -30 -54
18 -28 26 14 37 16 46 7 9 -9 5 -19 -15 -40 -25 -26 -35 -52 -21 -52 4 0 22 9
40 21 54 33 71 11 29 -39 -34 -41 -14 -51 31 -17 48 36 65 21 35 -30 -30 -51
-16 -64 25 -24 26 25 37 30 46 21 9 -9 8 -20 -5 -48 -25 -52 -10 -61 28 -17
43 49 63 37 41 -25 -20 -55 -3 -63 30 -13 31 48 59 47 48 -3 -10 -47 -10 -58
2 -63 6 -2 18 15 27 37 9 25 22 40 32 40 15 0 17 -8 13 -50 -6 -63 15 -69 33
-10 9 28 18 40 31 40 15 0 18 -8 18 -50 0 -62 16 -65 31 -5 9 34 16 45 28 43
12 -2 17 -17 19 -51 4 -58 24 -59 33 -3 10 63 48 68 49 6 0 -14 4 -32 10 -40
8 -13 10 -13 14 0 3 8 7 31 8 50 4 52 32 52 49 0 18 -54 35 -52 31 4 -3 33 0
45 13 49 12 5 21 -5 35 -39 24 -55 42 -50 34 10 -5 33 -3 44 9 49 10 4 20 -7
32 -34 20 -44 51 -55 41 -14 -3 14 -9 36 -12 49 -10 42 21 39 50 -5 33 -50 51
-42 29 12 -12 31 -13 43 -4 52 10 9 19 5 42 -20 26 -30 49 -42 49 -28 0 3 -9
24 -20 46 -18 35 -19 40 -5 46 10 3 28 -6 50 -27 42 -40 55 -24 21 27 -22 32
-24 38 -10 46 10 6 25 1 49 -17 43 -33 55 -17 21 27 -17 22 -22 37 -16 47 7
11 16 9 49 -13 51 -34 65 -17 23 26 -21 21 -28 37 -23 45 7 11 16 10 49 -7 51
-26 65 -11 23 25 -17 14 -31 33 -31 41 0 16 15 15 78 -3 34 -10 26 12 -13 36
-56 35 -35 53 44 39 40 -7 34 17 -9 36 -27 12 -39 23 -35 33 3 7 5 15 5 17 0
1 20 0 45 -3 56 -6 59 10 5 32 -54 21 -45 46 17 46 55 0 54 20 0 33 -27 7 -37
14 -37 28 0 16 7 19 45 19 59 0 62 25 5 34 -31 5 -40 11 -40 26 0 14 7 20 24
20 30 0 56 9 56 20 0 5 -20 12 -46 16 -56 8 -57 34 -1 47 54 13 50 39 -5 35
-37 -2 -43 0 -43 16 0 13 11 23 35 31 44 15 40 31 -7 28 -32 -3 -52 8 -53 28
0 3 16 13 35 22 49 23 46 41 -6 32 -58 -10 -69 11 -23 42 53 37 46 53 -15 32
-25 -9 -35 -9 -44 1 -9 9 -4 18 22 41 43 35 34 47 -18 27 -36 -14 -40 -14 -46
0 -3 9 5 26 21 43 14 15 24 31 21 36 -6 9 117 146 1212 1353 262 289 647 713
856 944 l379 418 33 -98 c18 -54 38 -101 45 -105 6 -4 39 -87 73 -185 l61
-178 -121 -81 c-208 -139 -363 -275 -515 -451 -405 -470 -619 -1043 -620
-1655 -1 -1008 580 -1902 1505 -2321 195 -88 474 -166 715 -199 143 -20 517
-18 660 4 406 63 744 193 1065 408 381 257 656 571 860 984 126 255 207 521
246 805 17 123 18 507 1 625 -101 709 -445 1300 -998 1716 -700 526 -1645 652
-2453 329 -68 -28 -125 -49 -127 -47 -2 1 -30 80 -63 176 -33 95 -70 189 -82
209 -18 32 -149 392 -149 412 0 4 27 24 59 44 33 20 82 59 108 86 l49 50 17
-172 c10 -95 29 -229 42 -298 32 -159 85 -350 96 -350 13 0 12 5 -30 174 -48
189 -77 357 -91 537 l-11 136 40 79 c78 155 110 371 90 609 -6 72 -11 134 -12
140 -1 5 62 17 143 27 217 25 200 28 235 -40 17 -33 61 -88 104 -131 l75 -74
-17 -66 c-9 -36 -19 -102 -22 -146 -9 -121 -38 -209 -78 -238 -17 -13 -126
-72 -242 -132 -115 -59 -220 -117 -233 -128 -12 -11 -27 -37 -33 -57 -21 -70
35 -140 111 -140 38 0 460 214 537 272 101 77 153 195 168 383 4 44 13 105 21
136 8 31 18 102 23 158 7 93 11 105 37 132 41 43 170 127 215 141 35 10 41 9
73 -16 51 -38 59 -79 47 -235 -13 -179 0 -223 82 -276 23 -15 52 -36 64 -47
40 -37 47 -9 8 31 -21 20 -51 56 -68 80 l-30 44 11 181 c7 102 8 196 3 216
-11 50 -66 156 -112 217 -27 36 -39 63 -39 85 -1 49 -31 108 -78 151 -51 45
-72 46 -106 6z m-1048 -532 c56 0 102 -1 102 -2 0 -2 -9 -47 -20 -101 -37
-177 -60 -366 -67 -543 l-6 -174 -58 -61 c-50 -53 -164 -136 -173 -125 -1 2
-54 150 -116 329 -62 179 -118 330 -124 335 -11 10 -115 267 -111 273 2 2 90
21 196 42 132 27 207 37 234 33 22 -3 86 -6 143 -6z m139 -332 c-6 -177 -25
-273 -76 -380 l-29 -60 -1 46 c-3 151 51 577 86 684 13 39 24 -129 20 -290z
m-644 -602 c26 -75 45 -139 41 -142 -11 -12 -240 -13 -344 -2 -123 13 -292 48
-440 90 -63 18 -109 26 -114 21 -10 -10 -11 -10 89 -39 267 -77 556 -118 728
-102 42 3 77 4 77 2 0 -3 -22 -28 -49 -56 -27 -27 -316 -345 -642 -705 -327
-361 -888 -981 -1248 -1378 -360 -397 -657 -720 -659 -717 -2 2 3 22 12 45 13
34 14 40 1 40 -7 0 -22 -13 -32 -30 -19 -33 -21 -34 -42 -21 -11 7 -11 15 -2
41 14 41 14 50 1 50 -6 0 -20 -15 -31 -34 -28 -47 -54 -39 -45 15 8 51 -10 59
-31 14 -23 -48 -48 -43 -48 9 0 52 -19 56 -33 7 -10 -32 -16 -38 -32 -34 -16
4 -20 14 -20 44 0 45 -17 52 -26 12 -10 -49 -14 -55 -31 -51 -13 2 -19 14 -21
41 -4 50 -30 50 -34 0 -2 -25 -8 -39 -19 -41 -12 -2 -88 215 -377 1086 -199
599 -362 1096 -362 1105 0 39 171 158 300 207 19 8 37 17 41 22 5 7 3279 635
3324 637 17 1 27 -20 68 -136z m-3535 -542 c-76 -39 -113 -65 -169 -118 l-46
-44 -17 58 c-10 32 -18 62 -19 67 -2 8 239 62 288 65 11 0 -6 -12 -37 -28z
m-62 -1380 c179 -540 328 -990 331 -999 4 -13 3 -14 -5 -3 -18 26 -31 3 -19
-35 9 -29 8 -37 -4 -45 -10 -6 -21 0 -41 24 -33 39 -47 29 -25 -18 16 -33 16
-35 -3 -45 -16 -9 -23 -5 -42 20 -28 39 -46 24 -23 -20 13 -25 14 -34 4 -46
-10 -13 -16 -11 -39 11 -24 23 -50 33 -50 19 0 -3 9 -19 20 -34 11 -16 17 -35
14 -44 -8 -20 -9 -20 -39 0 -21 14 -25 24 -25 68 0 74 -27 292 -50 406 -95
464 -316 884 -662 1255 l-65 70 195 202 c107 112 197 202 199 200 1 -2 150
-446 329 -986z m-2280 858 c314 -30 623 -131 884 -289 109 -66 250 -167 250
-179 0 -4 -321 -342 -713 -752 -476 -497 -725 -750 -750 -761 -63 -30 -94
-106 -66 -161 24 -47 61 -76 103 -81 23 -3 519 -74 1104 -158 l1063 -153 -6
-33 c-12 -66 -63 -229 -99 -322 -220 -555 -683 -1004 -1246 -1208 -760 -276
-1607 -97 -2188 463 -333 320 -537 700 -623 1159 -26 140 -37 448 -20 592 74
641 411 1192 946 1547 129 85 345 189 504 240 283 92 568 124 857 96z m7749
-39 c546 -60 1052 -328 1396 -739 504 -602 637 -1404 355 -2143 -41 -109 -128
-275 -203 -388 -292 -443 -738 -759 -1253 -890 -187 -47 -255 -54 -515 -55
-217 0 -265 3 -366 22 -434 83 -795 267 -1098 558 -456 438 -689 1032 -651
1661 36 578 308 1117 753 1491 115 96 255 189 266 177 5 -5 114 -193 241 -419
250 -440 332 -583 587 -1022 162 -278 164 -283 152 -316 -15 -44 -6 -78 32
-122 39 -44 97 -62 136 -41 50 25 66 53 71 114 4 52 1 62 -23 90 -15 17 -40
35 -56 40 -28 7 -39 27 -168 317 -197 443 -298 658 -518 1105 -173 352 -192
396 -177 407 9 6 78 32 153 57 139 45 292 79 431 95 107 12 349 13 455 1z
m-6275 -770 c230 -301 369 -630 425 -1005 15 -100 25 -499 12 -511 -2 -2 -298
38 -658 90 -360 53 -817 119 -1016 148 l-362 52 62 65 c33 37 347 365 696 730
l636 663 74 -78 c40 -44 99 -113 131 -154z m1644 -1290 c31 -12 56 -24 56 -26
0 -3 -26 -34 -57 -69 l-58 -64 -28 26 c-25 25 -66 99 -81 149 -6 20 -4 20 53
13 32 -5 84 -18 115 -29z m-764 -19 c0 -6 -4 -13 -10 -16 -5 -3 -10 1 -10 9 0
9 5 16 10 16 6 0 10 -4 10 -9z m354 -23 c21 -78 -11 -172 -71 -210 -42 -25
-193 -43 -193 -22 0 20 79 131 117 165 39 33 122 89 134 89 4 0 9 -10 13 -22z
m100 -303 c4 -10 -1 -15 -14 -15 -20 0 -26 11 -13 23 10 11 20 8 27 -8z m655
-80 c12 -75 9 -142 -11 -219 -11 -45 -58 -146 -67 -146 -9 0 -98 139 -110 173
-16 41 -13 87 8 127 19 34 150 151 162 144 3 -2 12 -38 18 -79z m-419 -75 c0
-18 -27 -65 -46 -81 -16 -13 -17 -11 -10 31 4 24 12 48 19 52 17 11 37 10 37
-2z m-520 -75 c35 -18 78 -69 86 -101 8 -32 -2 -104 -24 -176 l-18 -58 -31 33
c-73 75 -143 231 -143 318 l0 39 51 -20 c28 -11 63 -27 79 -35z m441 -28 c-5
-5 -32 -12 -59 -15 -40 -3 -59 0 -91 19 -23 12 -41 25 -41 29 0 3 45 -1 100
-9 65 -9 97 -18 91 -24z m-731 -171 c0 -3 -4 -8 -10 -11 -5 -3 -10 -1 -10 4 0
6 5 11 10 11 6 0 10 -2 10 -4z m827 -76 c42 -19 163 -97 163 -105 0 -9 -98
-54 -155 -71 -69 -20 -198 -23 -262 -5 l-43 12 61 74 c62 75 121 115 169 115
14 0 44 -9 67 -20z"/>
<path d="M3408 6866 c-32 -18 -61 -35 -64 -39 -3 -3 31 -48 75 -100 79 -91 86
-96 184 -141 94 -43 109 -54 194 -143 l91 -95 49 6 c26 3 142 13 258 22 l209
17 193 128 c186 125 195 129 265 140 59 8 95 7 187 -7 l114 -17 128 64 c71 35
128 66 127 70 -2 3 -32 31 -67 62 l-64 57 -101 0 c-55 0 -265 -17 -466 -38
l-365 -39 -280 18 c-172 11 -341 27 -438 43 -87 14 -161 26 -165 26 -4 0 -33
-15 -64 -34z m1147 -333 l-160 -107 -250 -19 -250 -20 -57 63 c-32 35 -56 65
-55 66 1 2 23 -2 47 -7 89 -21 247 -2 551 65 156 35 295 64 309 65 17 1 -25
-32 -135 -106z"/>
</g>
</svg>
