<?xml version="1.0" standalone="no"?>
<!DOCTYPE svg PUBLIC "-//W3C//DTD SVG 20010904//EN"
 "http://www.w3.org/TR/2001/REC-SVG-20010904/DTD/svg10.dtd">
<svg version="1.0" xmlns="http://www.w3.org/2000/svg"
 width="672.000000pt" height="1280.000000pt" viewBox="0 0 672.000000 1280.000000"
 preserveAspectRatio="xMidYMid meet">
<metadata>
Created by potrace 1.15, written by Peter Selinger 2001-2017
</metadata>
<g transform="translate(0.000000,1280.000000) scale(0.100000,-0.100000)"
fill="#000000" stroke="none">
<path d="M4461 12775 c-31 -18 -58 -25 -95 -25 -41 0 -57 -5 -72 -21 -10 -12
-54 -41 -96 -66 -42 -24 -87 -55 -100 -68 -13 -15 -35 -25 -51 -25 -20 0 -30
-7 -39 -27 -6 -16 -39 -89 -73 -163 -34 -74 -70 -160 -80 -190 -10 -31 -30
-67 -46 -82 -21 -20 -29 -36 -29 -62 0 -26 -4 -36 -16 -36 -9 0 -25 -22 -39
-54 -13 -30 -33 -59 -43 -65 -12 -6 -22 -26 -26 -50 -11 -73 -87 -128 -94 -68
-3 23 -7 27 -20 21 -16 -7 -33 -8 -97 -3 -16 1 -50 -6 -75 -16 -28 -10 -97
-20 -180 -26 -201 -14 -296 -26 -327 -42 -24 -13 -29 -13 -40 2 -12 15 -14 15
-24 -1 -8 -14 -23 -18 -69 -18 -32 0 -61 -4 -64 -9 -3 -5 -21 -12 -40 -15 -19
-4 -47 -13 -63 -21 -24 -12 -40 -13 -79 -5 -27 6 -66 13 -86 16 -27 5 -45 17
-70 48 -18 22 -76 86 -128 141 -53 56 -108 117 -123 137 -20 26 -38 37 -66 42
-25 4 -55 21 -94 55 -31 27 -67 53 -79 57 -13 3 -43 27 -68 53 -25 25 -74 61
-109 80 -35 19 -81 49 -101 67 -32 29 -49 35 -131 49 -120 19 -179 20 -179 1
0 -8 -7 -16 -15 -20 -20 -7 -20 -118 1 -358 13 -148 14 -200 5 -272 -8 -62 -9
-92 -1 -100 5 -5 10 -42 10 -81 0 -44 9 -103 25 -160 14 -50 25 -106 25 -125
0 -19 9 -59 21 -89 11 -30 24 -91 29 -135 8 -70 13 -83 37 -102 26 -21 28 -28
31 -111 4 -80 6 -90 29 -109 22 -17 24 -23 14 -42 -6 -12 -8 -22 -2 -22 5 0
11 7 15 15 13 36 25 10 24 -58 0 -45 10 -115 27 -185 15 -62 29 -148 30 -190
2 -42 7 -103 11 -134 3 -32 1 -92 -5 -135 -19 -128 -17 -228 4 -267 18 -33 18
-37 2 -95 -9 -33 -17 -69 -17 -79 0 -15 -10 -21 -46 -26 -25 -3 -80 -21 -122
-39 -42 -19 -94 -40 -114 -46 -36 -12 -37 -14 -40 -64 -3 -48 -5 -52 -30 -55
-26 -3 -28 -7 -28 -47 0 -41 -2 -44 -37 -56 -21 -7 -67 -25 -103 -42 -36 -16
-91 -34 -122 -41 -47 -9 -62 -18 -87 -50 -34 -42 -41 -86 -15 -86 9 0 48 14
87 31 40 18 92 34 117 37 25 3 56 13 69 23 13 11 30 19 37 19 8 0 14 5 14 10
0 6 18 10 40 10 22 0 40 4 40 9 0 5 29 22 64 39 35 17 67 35 71 41 3 6 18 11
33 11 15 0 36 7 46 15 11 8 32 15 47 15 19 0 28 6 32 21 4 13 12 20 24 17 24
-4 24 -43 0 -43 -10 0 -23 -8 -28 -17 -5 -9 -35 -26 -67 -38 -31 -12 -71 -35
-88 -51 -20 -19 -36 -27 -47 -23 -14 5 -17 -1 -17 -35 0 -45 -5 -49 -32 -24
-17 15 -19 15 -36 0 -11 -10 -35 -17 -59 -17 -24 0 -46 -6 -53 -15 -7 -8 -29
-15 -50 -15 -23 0 -51 -9 -74 -25 -20 -14 -41 -25 -47 -25 -5 0 -36 -13 -69
-30 -69 -35 -173 -43 -184 -14 -12 32 -26 0 -26 -62 l0 -64 27 6 c33 7 101 39
193 89 63 34 100 41 107 20 2 -6 -16 -20 -39 -32 -24 -11 -77 -45 -119 -76
-42 -30 -101 -66 -131 -79 -53 -24 -55 -27 -61 -72 -8 -58 -1 -76 29 -76 20 0
24 5 24 33 0 27 6 36 40 55 22 12 40 26 40 31 0 28 291 201 338 201 28 0 35
26 16 62 -20 38 -11 47 27 25 37 -21 78 -22 104 -3 11 7 46 19 78 26 32 6 61
18 64 26 9 25 23 15 23 -16 0 -25 -8 -36 -47 -63 -27 -17 -67 -51 -91 -74 -24
-24 -48 -43 -54 -43 -7 0 -58 -28 -116 -62 l-104 -61 7 -36 c8 -45 33 -73 59
-69 12 2 66 50 121 108 55 58 110 108 124 112 13 4 43 25 65 47 23 22 55 43
71 47 19 3 37 16 47 34 9 16 55 53 101 84 47 30 89 62 95 71 8 15 20 17 71 13
38 -3 68 -10 77 -20 15 -14 14 -18 -5 -37 -11 -11 -23 -31 -27 -45 -7 -29 23
-102 65 -155 l30 -37 -48 -13 c-26 -7 -70 -27 -98 -46 -28 -19 -66 -38 -84
-42 -29 -8 -36 -16 -49 -57 -17 -51 -45 -80 -71 -73 -13 4 -17 -7 -22 -58 -4
-37 -21 -99 -41 -150 -28 -69 -33 -92 -25 -107 11 -20 10 -35 -10 -153 -6 -33
-21 -134 -33 -225 -21 -149 -25 -165 -43 -165 -13 0 -21 -9 -26 -30 -3 -17
-20 -59 -38 -95 -17 -36 -31 -77 -31 -92 0 -20 -5 -28 -17 -28 -26 -1 -59 -31
-66 -62 -4 -14 -25 -50 -47 -79 -22 -30 -44 -65 -47 -79 -7 -26 -40 -59 -60
-60 -8 0 -13 -14 -13 -35 0 -23 -10 -49 -30 -76 -16 -23 -32 -58 -36 -78 -4
-20 -22 -61 -40 -91 -19 -30 -37 -70 -40 -87 -4 -18 -12 -33 -19 -33 -21 0
-65 -88 -65 -130 0 -29 -6 -41 -25 -54 -14 -9 -27 -27 -31 -41 -3 -13 -21 -33
-39 -44 -44 -26 -66 -61 -72 -115 -4 -33 -12 -49 -33 -64 -21 -16 -29 -33 -34
-69 -10 -68 -15 -83 -31 -83 -16 0 -22 -16 -31 -80 -4 -27 -13 -55 -20 -61 -8
-7 -14 -31 -14 -59 0 -28 -6 -52 -14 -59 -7 -6 -19 -52 -26 -103 -7 -51 -19
-113 -26 -138 -8 -25 -14 -75 -14 -112 0 -61 -2 -68 -20 -68 -20 0 -20 -7 -20
-436 0 -427 0 -436 20 -441 22 -6 27 -23 8 -23 -28 -1 -55 -38 -72 -102 -24
-90 -79 -179 -152 -247 l-61 -57 -1 -66 c-1 -36 -6 -85 -11 -109 -6 -24 -11
-68 -11 -96 0 -46 -3 -53 -20 -53 -17 0 -20 -7 -20 -43 0 -24 -5 -48 -12 -55
-7 -7 -11 -53 -9 -139 2 -179 8 -212 37 -223 17 -7 24 -17 24 -35 0 -14 13
-94 30 -178 16 -83 32 -176 36 -205 4 -33 11 -52 20 -52 21 0 38 -39 24 -56
-10 -11 -9 -21 4 -48 9 -19 16 -57 16 -84 0 -35 7 -63 25 -93 14 -24 25 -51
25 -60 0 -8 11 -38 25 -65 19 -37 25 -65 25 -111 0 -35 4 -63 10 -63 18 0 40
-58 40 -105 0 -38 3 -45 20 -45 18 0 20 -7 20 -62 1 -40 6 -70 15 -82 9 -12
15 -42 15 -73 0 -39 8 -69 29 -112 17 -32 39 -87 51 -122 19 -55 31 -73 90
-127 40 -36 73 -76 79 -95 6 -18 24 -39 41 -49 20 -12 30 -25 30 -41 0 -18 19
-41 66 -83 41 -35 73 -74 84 -99 10 -23 33 -51 53 -65 20 -14 48 -44 63 -68
15 -24 40 -50 55 -57 15 -8 47 -37 70 -64 34 -38 73 -64 172 -115 109 -57 130
-65 149 -55 13 7 40 9 72 5 28 -4 74 -9 103 -12 39 -5 52 -11 56 -25 7 -25 33
-24 40 2 5 17 12 20 54 17 l48 -3 -3 -35 c-2 -19 -10 -56 -18 -82 -20 -60 -11
-104 20 -112 13 -3 50 -21 83 -39 90 -51 116 -57 249 -57 99 0 124 -3 124 -14
0 -7 7 -19 15 -26 8 -7 15 -21 15 -31 0 -14 19 -24 83 -44 78 -25 123 -28 170
-9 11 4 19 -6 27 -32 7 -21 30 -64 51 -97 22 -33 39 -71 39 -84 0 -20 5 -23
35 -23 30 0 37 -5 49 -33 30 -71 95 -100 223 -101 77 -1 82 0 103 26 l21 28
30 -23 c25 -18 47 -23 118 -25 112 -5 171 10 171 42 0 31 30 56 68 56 26 0 32
-4 32 -20 0 -36 29 -79 58 -87 14 -3 142 -2 282 4 274 11 359 8 366 -12 4 -10
19 -8 67 7 34 10 94 22 133 26 l71 7 71 77 c53 57 75 90 84 123 7 25 17 45 24
45 6 0 18 8 28 19 14 15 17 46 19 197 2 166 0 183 -20 226 -16 34 -32 53 -57
65 -31 14 -36 22 -36 50 0 25 -4 31 -15 27 -12 -5 -15 4 -15 44 0 49 1 51 36
62 52 17 101 65 134 129 26 52 27 59 14 84 -8 15 -19 27 -24 27 -16 0 -80 67
-80 84 0 20 31 21 69 1 27 -13 31 -12 102 32 82 50 126 88 134 114 3 9 18 20
32 24 44 11 105 61 173 141 34 42 80 89 101 106 34 28 39 36 39 75 0 37 3 43
21 43 15 0 19 5 14 18 -3 11 3 30 16 46 12 15 19 35 16 46 -3 12 1 20 13 23
12 3 20 19 25 46 4 24 13 45 20 47 7 3 16 26 20 52 4 26 22 85 41 131 28 71
34 98 34 162 0 57 4 80 15 89 11 9 15 28 14 65 -2 35 3 60 14 75 13 19 15 36
10 77 -5 45 -3 53 10 53 17 0 22 14 31 94 4 27 13 57 21 66 9 10 15 37 15 69
0 42 4 54 18 58 20 5 62 113 69 181 3 23 9 42 15 42 5 0 18 20 29 45 11 24 24
47 29 50 6 3 10 28 10 54 0 35 5 53 20 66 10 9 31 52 45 95 14 43 34 85 44 94
11 10 21 38 25 68 8 61 20 85 44 92 10 3 25 28 35 57 25 68 85 125 189 179 64
34 92 43 126 41 24 0 81 5 126 14 44 8 98 16 120 17 38 3 39 4 68 78 21 51 31
94 32 134 l1 59 -105 46 c-98 43 -111 46 -192 47 -48 0 -91 3 -95 7 -11 12
-56 8 -103 -9 -37 -13 -70 -15 -182 -9 -122 6 -138 5 -138 -9 0 -11 -9 -16
-28 -16 -20 0 -35 -9 -50 -30 -13 -16 -31 -30 -41 -30 -11 0 -29 -15 -41 -34
-11 -19 -36 -44 -55 -56 -21 -13 -38 -34 -45 -55 -7 -22 -28 -46 -56 -67 -30
-21 -44 -39 -44 -54 0 -14 -10 -30 -24 -40 -14 -8 -28 -30 -32 -47 -10 -48
-37 -97 -83 -149 -31 -34 -41 -55 -41 -80 0 -25 -6 -36 -22 -43 -17 -7 -25
-22 -30 -55 -4 -25 -15 -50 -23 -56 -8 -6 -15 -21 -15 -33 0 -11 -6 -21 -14
-21 -17 0 -36 -51 -36 -96 0 -19 -4 -34 -10 -34 -22 0 -47 -39 -53 -83 -4 -26
-27 -109 -51 -185 -24 -75 -47 -157 -51 -182 -10 -70 -15 -80 -41 -91 -23 -8
-25 -14 -23 -61 1 -38 -4 -63 -19 -88 -11 -19 -24 -57 -28 -85 -4 -27 -15 -60
-25 -73 -10 -13 -25 -49 -34 -79 -10 -33 -29 -68 -46 -85 -16 -16 -29 -40 -29
-52 0 -12 -5 -27 -11 -33 -6 -6 -12 -25 -14 -42 -2 -24 -17 -44 -70 -91 -37
-33 -74 -60 -82 -60 -12 0 -11 3 2 16 9 9 31 40 50 69 18 29 42 59 54 67 13 9
19 24 19 46 -1 18 6 40 15 50 10 10 17 28 17 40 0 12 5 22 10 22 6 0 10 11 10
25 0 15 6 25 14 25 16 0 26 42 26 109 0 74 8 91 41 91 31 0 39 17 14 26 -21 8
-19 23 10 87 26 61 59 209 71 321 5 55 10 70 25 73 15 4 19 15 19 47 0 23 9
59 20 81 11 22 20 49 20 60 0 11 9 38 20 60 15 29 17 42 8 52 -8 10 -8 17 0
25 7 7 12 45 12 94 0 61 4 85 15 94 12 10 12 16 4 26 -8 10 -8 22 -1 42 6 18
6 35 1 43 -21 32 -41 121 -30 132 6 6 11 36 11 67 0 45 -4 58 -21 68 -11 7
-29 33 -40 56 -10 24 -26 49 -34 56 -14 11 -14 15 -1 29 8 9 19 45 25 81 10
63 28 90 58 90 17 0 16 10 -4 32 -15 17 -15 20 4 41 11 12 28 37 37 55 9 18
25 38 36 45 16 9 20 23 20 69 0 45 3 58 15 58 11 0 13 8 8 30 -4 21 0 36 11
49 25 28 46 123 46 214 1 54 5 88 15 100 8 12 11 31 8 53 -4 25 -2 35 11 40
12 5 16 19 16 60 0 47 3 54 20 54 13 0 18 5 13 16 -3 8 4 28 16 44 13 19 20
41 19 62 -2 22 1 32 10 30 8 -1 12 12 12 42 0 30 5 46 15 50 17 6 19 121 6
311 -9 126 0 244 20 256 10 6 13 27 12 71 -1 52 2 66 22 90 13 15 33 57 45 92
12 36 32 81 46 101 14 20 24 50 24 70 0 18 17 89 37 157 31 103 37 138 37 220
1 86 3 98 19 98 14 0 17 10 17 64 0 55 -3 64 -19 69 -17 4 -19 11 -14 59 4 40
-2 84 -26 178 -17 69 -31 136 -31 150 0 13 -10 34 -22 47 -15 16 -23 40 -26
78 -3 43 -8 55 -21 55 -33 0 -69 56 -119 185 -28 72 -54 143 -58 158 -4 16
-16 32 -29 37 -18 7 -26 22 -34 62 -7 29 -37 108 -67 176 -55 121 -83 223 -84
294 0 26 -8 45 -27 65 -16 16 -41 46 -57 67 -15 21 -41 42 -56 48 -17 6 -31
19 -34 34 -12 46 -80 107 -166 149 -76 37 -81 41 -75 65 27 102 11 172 -52
238 -24 25 -43 46 -43 47 0 11 104 85 109 78 3 -5 31 -21 62 -36 32 -15 76
-47 99 -71 25 -25 60 -49 84 -57 51 -16 118 -59 173 -112 35 -34 43 -38 49
-24 9 26 -17 59 -82 102 -33 22 -80 59 -106 82 -29 27 -57 43 -72 43 -14 0
-53 18 -87 40 -34 22 -68 40 -76 40 -7 0 -13 11 -13 25 0 23 4 25 40 25 22 0
40 -4 40 -9 0 -8 166 -81 186 -81 6 0 30 -18 54 -39 43 -39 75 -51 130 -51 19
0 33 -8 44 -25 11 -16 26 -25 42 -25 18 0 47 -20 92 -61 71 -64 117 -92 170
-104 29 -6 32 -5 32 18 0 15 -10 31 -25 41 -14 9 -25 25 -25 36 0 14 -7 20
-23 20 -13 0 -46 16 -73 35 -27 19 -55 35 -62 35 -8 0 -27 14 -42 30 -15 17
-37 30 -48 30 -11 0 -33 13 -50 28 -16 15 -60 44 -98 63 -115 59 -184 100
-184 109 0 19 22 20 65 5 25 -8 66 -15 90 -15 37 0 45 -3 45 -19 0 -15 10 -19
63 -24 40 -3 97 -20 161 -46 54 -22 121 -44 150 -47 28 -4 58 -13 67 -20 9 -8
44 -25 79 -39 35 -14 67 -30 71 -37 4 -6 22 -12 41 -12 18 -1 44 -8 58 -17 14
-10 35 -20 48 -24 21 -6 22 -4 22 44 0 51 0 51 -32 51 -18 0 -60 14 -93 31
-33 18 -73 39 -90 47 -16 9 -24 17 -17 20 25 8 12 32 -18 32 -42 0 -100 26
-100 44 0 13 -12 16 -57 16 -68 0 -294 27 -339 41 -17 5 -50 9 -75 9 -24 0
-53 6 -64 14 -11 7 -48 15 -83 18 -42 3 -68 10 -80 22 -16 16 -16 18 7 37 28
23 47 24 68 4 12 -13 48 -15 216 -14 146 1 210 -2 229 -11 24 -11 31 -11 48 5
28 25 25 46 -9 79 -27 26 -30 27 -57 13 -57 -29 -110 -32 -461 -27 -18 0 -23
6 -23 25 l0 25 146 0 c106 0 145 3 142 12 -3 7 -38 11 -103 12 -69 1 -100 5
-103 14 -2 6 -17 12 -33 12 -31 0 -36 11 -20 53 13 34 35 39 99 23 32 -8 89
-17 127 -21 126 -11 143 -15 148 -36 8 -30 50 -24 70 10 9 16 17 36 17 45 0
20 -55 60 -103 76 -44 14 -206 15 -284 2 l-53 -9 -6 36 c-14 86 -50 182 -118
315 -88 168 -116 248 -98 276 7 11 12 49 12 86 0 50 5 72 19 90 12 15 22 49
26 89 5 40 12 66 21 69 31 12 5 130 -53 236 -34 61 -35 67 -24 108 17 66 15
373 -4 408 -9 18 -15 56 -15 98 0 61 -3 72 -30 106 -50 63 -73 127 -78 215 -2
44 -10 99 -18 123 -10 30 -14 93 -14 208 0 180 -10 240 -46 279 -28 31 -29 31
-83 0z m429 -3160 c7 -8 20 -15 30 -15 10 0 20 -9 23 -20 3 -14 14 -20 32 -20
29 0 115 -46 115 -62 0 -22 -191 59 -198 84 -2 11 -14 18 -28 18 -15 0 -24 6
-24 15 0 8 8 15 19 15 10 0 24 -7 31 -15z m249 -154 c-3 -6 -10 -7 -18 -2 -7
5 -10 14 -6 21 9 14 29 -2 24 -19z m-3539 -51 c0 -29 -1 -30 -49 -30 -32 0
-51 -5 -54 -14 -3 -7 -28 -16 -59 -20 -29 -4 -71 -10 -92 -13 -30 -5 -37 -3
-31 7 11 18 83 47 139 55 27 4 65 15 85 26 49 26 61 24 61 -11z m-256 -136
c25 -10 19 -34 -8 -34 -27 0 -41 14 -31 30 7 12 17 12 39 4z m306 -44 c0 -13
-118 -71 -124 -61 -7 10 32 42 57 47 11 2 25 8 31 14 13 13 36 13 36 0z m2290
-80 c0 -5 -7 -10 -15 -10 -8 0 -15 5 -15 10 0 6 7 10 15 10 8 0 15 -4 15 -10z
m-2543 -84 c-4 -13 -56 -16 -64 -3 -3 5 0 13 6 17 17 10 63 0 58 -14z m802
-102 c2 -2 -10 -15 -27 -29 -44 -37 -50 -77 -18 -124 14 -20 26 -40 26 -43 0
-3 -11 -13 -25 -22 -24 -16 -28 -16 -68 2 -44 20 -77 46 -77 63 0 6 8 5 20 -1
16 -8 24 -8 35 4 8 8 24 18 35 21 26 8 17 25 -10 18 -24 -6 -26 13 -5 44 13
18 13 26 1 61 l-14 39 61 -15 c34 -8 64 -16 66 -18z m2338 -10 c-3 -3 -16 -4
-29 -2 l-23 5 25 10 c23 10 41 1 27 -13z m-844 -14 c-6 -22 -18 -26 -29 -9 -3
6 0 15 7 20 22 14 28 11 22 -11z m-1178 -10 c-3 -5 -15 -10 -26 -10 -10 0 -19
5 -19 10 0 6 12 10 26 10 14 0 23 -4 19 -10z m750 -36 c11 -5 9 -11 -9 -27
-22 -20 -23 -27 -17 -79 4 -32 10 -60 13 -64 4 -3 20 -2 36 4 22 7 41 6 78 -7
27 -9 55 -20 61 -24 7 -5 44 -11 83 -14 89 -7 123 6 156 63 30 52 54 74 54 51
0 -21 47 -57 75 -57 13 0 33 -8 45 -18 23 -19 23 -19 -51 -31 -153 -25 -375
-51 -492 -56 -67 -3 -134 -8 -150 -10 l-27 -5 20 28 c32 44 35 91 10 163 -12
35 -29 73 -38 83 -17 18 -15 19 61 12 43 -4 84 -9 92 -12z m1145 6 c0 -5 -7
-10 -15 -10 -8 0 -15 5 -15 10 0 6 7 10 15 10 8 0 15 -4 15 -10z m-93 -67 c-4
-37 -12 -54 -36 -75 -32 -28 -61 -37 -61 -18 0 14 46 60 60 60 5 0 10 15 10
33 0 35 6 47 23 47 6 0 7 -20 4 -47z m-1714 22 c33 -7 61 -15 63 -17 2 -2 -1
-22 -7 -43 -8 -28 -8 -49 0 -76 16 -54 55 -69 178 -69 54 0 105 -5 113 -10 11
-7 4 -10 -28 -10 -30 0 -47 -6 -59 -20 -22 -26 -33 -25 -33 1 0 20 -4 21 -58
14 -46 -5 -62 -3 -74 8 -9 9 -20 12 -28 7 -7 -4 -26 -4 -43 1 -19 5 -37 4 -50
-3 -16 -8 -22 -8 -25 1 -2 6 -27 11 -63 11 -50 0 -59 3 -59 18 0 10 -4 22 -10
28 -13 13 12 60 31 57 18 -3 93 92 84 107 -8 13 -3 12 68 -5z m1527 -65 c0 -5
-5 -10 -11 -10 -5 0 -7 5 -4 10 3 6 8 10 11 10 2 0 4 -4 4 -10z m-50 -75 c0
-18 -41 -20 -58 -3 -17 17 -15 26 6 31 23 5 52 -10 52 -28z m80 -41 c0 -73
-24 -70 -28 4 -2 42 0 52 12 52 13 0 16 -12 16 -56z m-1150 -84 c0 -5 -4 -10
-10 -10 -5 0 -10 5 -10 10 0 6 5 10 10 10 6 0 10 -4 10 -10z m1304 -79 c13
-12 40 -25 61 -28 36 -6 40 -10 73 -82 44 -96 53 -177 25 -236 -43 -92 -61
-112 -103 -119 -22 -3 -49 -15 -60 -26 -36 -36 -81 -35 -195 1 l-104 34 -31
69 c-47 105 -57 165 -35 223 10 26 30 65 44 88 24 39 33 45 121 74 109 36 167
36 204 2z"/>
<path d="M3702 8718 c6 -18 28 -21 28 -4 0 9 -7 16 -16 16 -9 0 -14 -5 -12
-12z"/>
<path d="M5320 9696 c0 -10 9 -16 21 -16 24 0 21 23 -4 28 -10 2 -17 -3 -17
-12z"/>
</g>
</svg>
